<svg id="Layer_1" data-name="Layer 1" xmlns="http://www.w3.org/2000/svg" viewBox="0 0 655.88 143.15"><defs><style>.cls-1{fill:#0078bf;}.cls-1,.cls-2{fill-rule:evenodd;}.cls-2{fill:#fcbd1b;}</style></defs><path class="cls-1" d="M434.67,310.73a12.07,12.07,0,0,1-12.89,12.4c-5.09,0-9.16-2.91-9.16-9,0-9.37,10.31-11.95,22.05-11.89v8.51Zm18.39-16.31c0-15.44-6.6-29-28.88-29-11.43,0-20.52,3.21-25.47,6.07l3.62,12.42a37.24,37.24,0,0,1,18.59-5.23c11.3,0,13.14,6.39,13.14,10.52v1c-24.64,0-40.21,8.5-40.21,25.87,0,10.62,7.94,20.57,21.72,20.57,8.48,0,15.58-3.38,19.83-8.8h.42s2.81,11.76,18.31,7.28a101.72,101.72,0,0,1-1.07-16.43V294.42Z" transform="translate(-69.17 -219.75)"/><path class="cls-1" d="M69.17,244.39s16.1,66,18.68,76.66c3,12.52,8.4,17.11,24,14l10.06-40.92c2.54-10.16,4.25-17.4,5.89-27.74h.29c1.15,10.45,2.79,17.62,4.89,27.79,0,0,4.09,18.56,6.19,28.31s7.94,15.9,23.2,12.56l24-90.68H167l-8.18,39.2c-2.21,11.4-4.21,20.32-5.73,30.76h-.28c-1.4-10.33-3.17-18.89-5.41-30l-8.52-39.95H118.7l-9.1,38.94c-2.59,11.83-5,21.4-6.54,31.47h-.28c-1.58-9.49-3.67-21.5-5.93-32.95,0,0-5.41-27.87-7.31-37.46Z" transform="translate(-69.17 -219.75)"/><path class="cls-1" d="M222.86,310.73a12.68,12.68,0,0,1-.46,3.68A12.9,12.9,0,0,1,210,323.13c-5.09,0-9.14-2.91-9.14-9,0-9.37,10.29-11.95,22-11.89v8.51Zm18.39-16.31c0-15.44-6.58-29-28.87-29-11.44,0-20.52,3.21-25.48,6.07l3.64,12.42a37.17,37.17,0,0,1,18.58-5.23c11.3,0,13.15,6.39,13.15,10.52v1c-24.65,0-40.21,8.5-40.21,25.87,0,10.62,7.93,20.57,21.7,20.57,8.48,0,15.58-3.38,19.83-8.8H224s2.82,11.76,18.33,7.28a99.33,99.33,0,0,1-1.09-16.43V294.42Z" transform="translate(-69.17 -219.75)"/><polygon class="cls-1" points="202.78 96.05 202.78 24.63 184.37 24.63 184.37 115.32 202.78 115.32 202.78 96.05 202.78 96.05"/><path class="cls-1" d="M512.88,244.39v66.9c0,9.2,1.72,15.67,5.45,19.62,3.23,3.45,8.57,5.68,15,5.68a43.77,43.77,0,0,0,13.33-2l-.24-14.39a28.11,28.11,0,0,1-7,.82c-6.27,0-8.37-4-8.37-12.29V283.18h16V265.83H531V244.39Z" transform="translate(-69.17 -219.75)"/><path class="cls-1" d="M465.33,267v68.12h19v-34.9a27.34,27.34,0,0,1,.41-5c1.42-7.3,7-12,15-12a34.13,34.13,0,0,1,5.47.48V265.83a17.5,17.5,0,0,0-4.18-.43c-7.09,0-15.14,4.58-18.53,14.39H482V267Z" transform="translate(-69.17 -219.75)"/><path class="cls-1" d="M284.85,267v68.12h18.51V295.12a15.8,15.8,0,0,1,.87-5.58c1.53-4,5.27-8.74,11.25-8.74,7.47,0,11,6.32,11,15.44v38.83h18.49V294.63a19.13,19.13,0,0,1,.77-5.52,11.7,11.7,0,0,1,11.12-8.31c7.57,0,11.19,6.21,11.19,16.94v37.33h18.52V294.94c0-21.17-10.75-29.54-22.88-29.54a24.65,24.65,0,0,0-13.44,3.7,28.68,28.68,0,0,0-8.63,8.48h-.27c-2.93-7.34-9.8-12.18-18.78-12.18-11.5,0-16.69,5.83-19.83,10.8h-.28V267Z" transform="translate(-69.17 -219.75)"/><path class="cls-2" d="M650.3,267.94c3.34,0,6.11-1.74,6.49-4l3.31-37.46c0-3.69-4.35-6.73-9.79-6.73s-9.78,3-9.78,6.73l3.31,37.46c.36,2.26,3.14,4,6.48,4Z" transform="translate(-69.17 -219.75)"/><path class="cls-2" d="M630.06,279.63c1.68-2.89,1.55-6.16-.22-7.6l-30.79-21.6c-3.19-1.84-8,.38-10.72,5.11s-2.25,10,.94,11.84l34.09,15.87c2.13.79,5-.74,6.71-3.63Z" transform="translate(-69.17 -219.75)"/><path class="cls-2" d="M670.56,279.62c1.68,2.89,4.57,4.42,6.71,3.63l34.09-15.87c3.2-1.85,3.66-7.13.93-11.84s-7.52-6.95-10.73-5.11L670.78,272c-1.76,1.44-1.88,4.71-.21,7.6Z" transform="translate(-69.17 -219.75)"/><path class="cls-2" d="M650.3,314.7c3.34,0,6.11,1.75,6.49,4l3.31,37.46c0,3.7-4.35,6.74-9.79,6.74s-9.78-3-9.78-6.74l3.31-37.46c.36-2.25,3.14-4,6.48-4Z" transform="translate(-69.17 -219.75)"/><path class="cls-2" d="M670.56,303c1.68-2.9,4.57-4.42,6.71-3.62l34.09,15.86c3.2,1.85,3.66,7.12.93,11.85s-7.52,6.95-10.73,5.11l-30.78-21.6c-1.76-1.45-1.88-4.72-.21-7.61Z" transform="translate(-69.17 -219.75)"/><path class="cls-2" d="M630.06,303c1.68,2.89,1.55,6.16-.22,7.61l-30.79,21.58c-3.19,1.85-8-.38-10.72-5.09s-2.25-10,.94-11.86l34.09-15.85c2.13-.81,5,.71,6.71,3.62Z" transform="translate(-69.17 -219.75)"/><path class="cls-2" d="M714.48,338.35a2.89,2.89,0,0,0,1.4.38c.69,0,1.06-.31,1.06-.79s-.3-.7-1-1c-.95-.36-1.56-.86-1.56-1.69s.78-1.69,2-1.69a3,3,0,0,1,1.4.3l-.27.86a2.44,2.44,0,0,0-1.15-.28c-.68,0-1,.36-1,.7s.33.65,1.11.95c1,.37,1.49.89,1.49,1.72s-.7,1.75-2.2,1.75a3.43,3.43,0,0,1-1.57-.36l.24-.89Z" transform="translate(-69.17 -219.75)"/><path class="cls-2" d="M723.9,337.14c0-.74-.08-1.65-.08-2.44h0a20.28,20.28,0,0,1-.69,2.23l-.83,2.53h-.82l-.78-2.49c-.21-.75-.42-1.54-.57-2.27h0c0,.76-.07,1.69-.1,2.49l-.14,2.33h-1l.39-5.81h1.39l.77,2.33c.21.68.38,1.37.53,2h0c.15-.62.35-1.35.57-2l.8-2.33h1.38l.35,5.81h-1l-.11-2.38Z" transform="translate(-69.17 -219.75)"/></svg>