<?xml version="1.0" encoding="utf-8"?>
<!-- Generator: Adobe Illustrator 24.3.0, SVG Export Plug-In . SVG Version: 6.00 Build 0)  -->
<svg version="1.1" id="Layer_1" xmlns="http://www.w3.org/2000/svg" xmlns:xlink="http://www.w3.org/1999/xlink" x="0px" y="0px"
	 viewBox="0 0 792 612" style="enable-background:new 0 0 792 612;" xml:space="preserve">
<style type="text/css">
	.Arched_x0020_Green{fill:url(#SVGID_1_);stroke:#FFFFFF;stroke-width:0.25;stroke-miterlimit:1;}
	.st0{fill-rule:evenodd;clip-rule:evenodd;fill:#0078BF;}
	.st1{fill-rule:evenodd;clip-rule:evenodd;fill:#FCBD1B;}
	.st2{fill:#0078BF;}
</style>
<linearGradient id="SVGID_1_" gradientUnits="userSpaceOnUse" x1="0" y1="612" x2="0.7071" y2="611.2929">
	<stop  offset="0" style="stop-color:#1DA238"/>
	<stop  offset="0.9831" style="stop-color:#24391D"/>
</linearGradient>
<path class="st0" d="M434.7,310.7c0,1.3-0.1,2.6-0.5,3.7c-1.4,4.7-6.3,8.7-12.4,8.7c-5.1,0-9.2-2.9-9.2-9c0-9.4,10.3-11.9,22-11.9
	V310.7L434.7,310.7z M453.1,294.4c0-15.4-6.6-29-28.9-29c-11.4,0-20.5,3.2-25.5,6.1l3.6,12.4c4.5-2.9,11.8-5.2,18.6-5.2
	c11.3,0,13.1,6.4,13.1,10.5v1c-24.6,0-40.2,8.5-40.2,25.9c0,10.6,7.9,20.6,21.7,20.6c8.5,0,15.6-3.4,19.8-8.8h0.4
	c0,0,2.8,11.8,18.3,7.3c-0.8-4.9-1.1-10.1-1.1-16.4V294.4L453.1,294.4z"/>
<path class="st0" d="M69.2,244.4c0,0,16.1,66,18.7,76.7c3,12.5,8.4,17.1,24,14l10.1-40.9c2.5-10.2,4.3-17.4,5.9-27.7h0.3
	c1.2,10.4,2.8,17.6,4.9,27.8c0,0,4.1,18.6,6.2,28.3c2.1,9.7,7.9,15.9,23.2,12.6l24-90.7H167l-8.2,39.2c-2.2,11.4-4.2,20.3-5.7,30.8
	h-0.3c-1.4-10.3-3.2-18.9-5.4-30l-8.5-40h-20.1l-9.1,38.9c-2.6,11.8-5,21.4-6.5,31.5h-0.3c-1.6-9.5-3.7-21.5-5.9-33
	c0,0-5.4-27.9-7.3-37.5H69.2L69.2,244.4z"/>
<path class="st0" d="M222.9,310.7c0,1.3-0.1,2.6-0.5,3.7c-1.4,4.7-6.3,8.7-12.4,8.7c-5.1,0-9.1-2.9-9.1-9c0-9.4,10.3-11.9,22-11.9
	V310.7L222.9,310.7z M241.3,294.4c0-15.4-6.6-29-28.9-29c-11.4,0-20.5,3.2-25.5,6.1l3.6,12.4c4.5-2.9,11.7-5.2,18.6-5.2
	c11.3,0,13.2,6.4,13.2,10.5v1c-24.6,0-40.2,8.5-40.2,25.9c0,10.6,7.9,20.6,21.7,20.6c8.5,0,15.6-3.4,19.8-8.8h0.4
	c0,0,2.8,11.8,18.3,7.3c-0.8-4.9-1.1-10.1-1.1-16.4V294.4L241.3,294.4z"/>
<polygon class="st0" points="272,315.8 272,244.4 253.5,244.4 253.5,335.1 272,335.1 272,315.8 "/>
<path class="st0" d="M512.9,244.4v66.9c0,9.2,1.7,15.7,5.4,19.6c3.2,3.4,8.6,5.7,15,5.7c5.5,0,10.8-1,13.3-2l-0.2-14.4
	c-1.9,0.5-4,0.8-7,0.8c-6.3,0-8.4-4-8.4-12.3v-25.6h16v-17.4h-16v-21.4H512.9L512.9,244.4z"/>
<path class="st0" d="M465.3,266.9v68.1h19v-34.9c0-1.9,0.1-3.5,0.4-5c1.4-7.3,7-12,15-12c2.2,0,3.8,0.2,5.5,0.5v-17.8
	c-1.4-0.3-2.4-0.4-4.2-0.4c-7.1,0-15.1,4.6-18.5,14.4H482v-12.8H465.3L465.3,266.9z"/>
<path class="st0" d="M284.9,266.9v68.1h18.5v-40c0-1.9,0.2-3.9,0.9-5.6c1.5-4,5.3-8.7,11.2-8.7c7.5,0,11,6.3,11,15.4v38.8h18.5
	v-40.4c0-1.8,0.2-3.9,0.8-5.5c1.5-4.6,5.6-8.3,11.1-8.3c7.6,0,11.2,6.2,11.2,16.9v37.3h18.5v-40.1c0-21.2-10.8-29.5-22.9-29.5
	c-5.4,0-9.6,1.4-13.4,3.7c-3.2,2-6.1,4.8-8.6,8.5h-0.3c-2.9-7.3-9.8-12.2-18.8-12.2c-11.5,0-16.7,5.8-19.8,10.8h-0.3v-9.3H284.9
	L284.9,266.9z"/>
<path class="st1" d="M650.3,267.9c3.3,0,6.1-1.7,6.5-4l3.3-37.5c0-3.7-4.3-6.7-9.8-6.7c-5.4,0-9.8,3-9.8,6.7l3.3,37.5
	C644.2,266.2,647,267.9,650.3,267.9L650.3,267.9L650.3,267.9z"/>
<path class="st1" d="M630.1,279.6c1.7-2.9,1.5-6.2-0.2-7.6l-30.8-21.6c-3.2-1.8-8,0.4-10.7,5.1c-2.7,4.7-2.3,10,0.9,11.8l34.1,15.9
	C625.5,284,628.4,282.5,630.1,279.6L630.1,279.6L630.1,279.6z"/>
<path class="st1" d="M670.6,279.6c1.7,2.9,4.6,4.4,6.7,3.6l34.1-15.9c3.2-1.9,3.7-7.1,0.9-11.8c-2.7-4.7-7.5-7-10.7-5.1L670.8,272
	C669,273.5,668.9,276.7,670.6,279.6L670.6,279.6L670.6,279.6z"/>
<path class="st1" d="M650.3,314.7c3.3,0,6.1,1.7,6.5,4l3.3,37.5c0,3.7-4.3,6.7-9.8,6.7c-5.4,0-9.8-3-9.8-6.7l3.3-37.5
	C644.2,316.4,647,314.7,650.3,314.7L650.3,314.7L650.3,314.7z"/>
<path class="st1" d="M670.6,303c1.7-2.9,4.6-4.4,6.7-3.6l34.1,15.9c3.2,1.9,3.7,7.1,0.9,11.8c-2.7,4.7-7.5,7-10.7,5.1l-30.8-21.6
	C669,309.2,668.9,305.9,670.6,303L670.6,303L670.6,303z"/>
<path class="st1" d="M630.1,303c1.7,2.9,1.5,6.2-0.2,7.6l-30.8,21.6c-3.2,1.8-8-0.4-10.7-5.1c-2.7-4.7-2.3-10,0.9-11.9l34.1-15.9
	C625.5,298.6,628.4,300.1,630.1,303L630.1,303L630.1,303z"/>
<path class="st1" d="M714.5,338.4c0.3,0.2,0.9,0.4,1.4,0.4c0.7,0,1.1-0.3,1.1-0.8c0-0.5-0.3-0.7-1-1c-1-0.4-1.6-0.9-1.6-1.7
	c0-1,0.8-1.7,2.1-1.7c0.6,0,1.1,0.1,1.4,0.3l-0.3,0.9c-0.2-0.1-0.6-0.3-1.2-0.3c-0.7,0-1,0.4-1,0.7c0,0.5,0.3,0.7,1.1,1
	c1,0.4,1.5,0.9,1.5,1.7c0,0.9-0.7,1.7-2.2,1.7c-0.6,0-1.3-0.2-1.6-0.4L714.5,338.4L714.5,338.4z"/>
<path class="st1" d="M723.9,337.1c0-0.7-0.1-1.6-0.1-2.4h0c-0.2,0.7-0.4,1.5-0.7,2.2l-0.8,2.5h-0.8l-0.8-2.5
	c-0.2-0.7-0.4-1.5-0.6-2.3h0c0,0.8-0.1,1.7-0.1,2.5l-0.1,2.3h-1l0.4-5.8h1.4l0.8,2.3c0.2,0.7,0.4,1.4,0.5,2h0c0.1-0.6,0.4-1.4,0.6-2
	l0.8-2.3h1.4l0.3,5.8h-1L723.9,337.1L723.9,337.1z"/>
<g>
	<path class="st2" d="M96.3,378.2l-1.9,6.8h-6.2l8-26.4h7.8l8.2,26.4h-6.5l-2-6.8H96.3z M103,373.8l-1.6-5.6
		c-0.5-1.6-0.9-3.5-1.3-5.1H100c-0.4,1.6-0.8,3.6-1.2,5.1l-1.6,5.6H103z"/>
	<path class="st2" d="M114.3,357.2h6v11h0.1c0.6-0.9,1.4-1.5,2.4-2c0.9-0.5,2-0.7,3.1-0.7c3.8,0,6.7,2.6,6.7,8.4V385h-6v-10.5
		c0-2.5-0.9-4.2-3.1-4.2c-1.6,0-2.5,1-3,2.1c-0.2,0.4-0.2,0.9-0.2,1.3V385h-6V357.2z"/>
	<path class="st2" d="M155,375.2c0,7-5,10.2-10.1,10.2c-5.6,0-9.9-3.7-9.9-9.9c0-6.2,4.1-10.2,10.3-10.2
		C151.1,365.4,155,369.4,155,375.2z M141.1,375.4c0,3.3,1.4,5.8,3.9,5.8c2.4,0,3.8-2.3,3.8-5.8c0-2.8-1.1-5.7-3.8-5.7
		C142.2,369.6,141.1,372.6,141.1,375.4z"/>
	<path class="st2" d="M157.5,372.1c0-2.8,0-4.7-0.2-6.3h5.1l0.2,3.5h0.2c1-2.8,3.3-4,5.2-4c0.5,0,0.8,0,1.3,0.1v5.6
		c-0.5-0.1-0.9-0.2-1.6-0.2c-2.2,0-3.7,1.2-4.1,3c-0.1,0.4-0.1,0.9-0.1,1.3v9.7h-6V372.1z"/>
	<path class="st2" d="M171.2,372.1c0-2.8,0-4.7-0.2-6.3h5.1l0.2,3.5h0.2c1-2.8,3.3-4,5.2-4c0.5,0,0.8,0,1.3,0.1v5.6
		c-0.5-0.1-0.9-0.2-1.6-0.2c-2.2,0-3.7,1.2-4.1,3c-0.1,0.4-0.1,0.9-0.1,1.3v9.7h-6V372.1z"/>
	<path class="st2" d="M200.5,380.4c0,1.8,0.1,3.6,0.3,4.6h-5.4l-0.4-1.9H195c-1.3,1.5-3.2,2.4-5.5,2.4c-3.9,0-6.2-2.8-6.2-5.9
		c0-5,4.5-7.3,11.3-7.3V372c0-1.1-0.5-2.5-3.5-2.5c-2,0-4,0.7-5.3,1.5l-1.1-3.8c1.3-0.7,4-1.7,7.4-1.7c6.4,0,8.4,3.8,8.4,8.3V380.4z
		 M194.7,376c-3.1,0-5.6,0.7-5.6,3c0,1.5,1,2.3,2.4,2.3c1.5,0,2.7-1,3.1-2.2c0.1-0.3,0.1-0.7,0.1-1V376z"/>
	<path class="st2" d="M204,379.8c1.1,0.7,3.4,1.4,5.1,1.4c1.8,0,2.5-0.6,2.5-1.6c0-1-0.6-1.5-2.8-2.2c-4-1.3-5.5-3.5-5.5-5.8
		c0-3.6,3.1-6.3,7.8-6.3c2.2,0,4.2,0.5,5.4,1.1l-1,4.1c-0.9-0.5-2.5-1.1-4.2-1.1c-1.5,0-2.3,0.6-2.3,1.5c0,0.9,0.7,1.4,3.1,2.2
		c3.6,1.3,5.1,3.1,5.2,5.9c0,3.6-2.8,6.2-8.3,6.2c-2.5,0-4.7-0.6-6.2-1.4L204,379.8z"/>
	<path class="st2" d="M226.8,359c2.2-0.4,5.1-0.6,8-0.6c5.1,0,8.4,0.9,10.9,2.8c2.7,2,4.5,5.3,4.5,10c0,5.1-1.8,8.5-4.4,10.7
		c-2.8,2.3-7.1,3.4-12.2,3.4c-3.1,0-5.3-0.2-6.8-0.4V359z M232.8,380.5c0.5,0.1,1.4,0.1,2.1,0.1c5.4,0,9-2.9,9-9.3
		c0-5.5-3.2-8.4-8.4-8.4c-1.3,0-2.2,0.1-2.7,0.2V380.5z"/>
	<path class="st2" d="M259.1,360.5c0,1.6-1.2,3-3.2,3c-1.9,0-3.1-1.3-3.1-3c0-1.7,1.3-3,3.2-3C257.9,357.5,259,358.8,259.1,360.5z
		 M252.9,385v-19.2h6V385H252.9z"/>
	<path class="st2" d="M262.5,372c0-2.4-0.1-4.4-0.2-6.1h5.2l0.3,2.7h0.1c0.8-1.3,2.7-3.1,5.9-3.1c3.9,0,6.9,2.6,6.9,8.3V385h-6
		v-10.6c0-2.5-0.9-4.2-3-4.2c-1.6,0-2.6,1.1-3.1,2.2c-0.2,0.4-0.2,0.9-0.2,1.5V385h-6V372z"/>
	<path class="st2" d="M288.9,377.3c0.2,2.5,2.6,3.6,5.4,3.6c2,0,3.7-0.3,5.3-0.8l0.8,4c-2,0.8-4.4,1.2-6.9,1.2
		c-6.5,0-10.2-3.8-10.2-9.8c0-4.9,3-10.2,9.7-10.2c6.2,0,8.5,4.8,8.5,9.6c0,1-0.1,1.9-0.2,2.4H288.9z M295.9,373.2
		c0-1.5-0.6-3.9-3.4-3.9c-2.5,0-3.5,2.3-3.7,3.9H295.9z"/>
	<path class="st2" d="M303.8,372.1c0-2.8,0-4.7-0.2-6.3h5.1l0.2,3.5h0.2c1-2.8,3.3-4,5.2-4c0.5,0,0.8,0,1.3,0.1v5.6
		c-0.5-0.1-0.9-0.2-1.6-0.2c-2.2,0-3.7,1.2-4.1,3c-0.1,0.4-0.1,0.9-0.1,1.3v9.7h-6V372.1z"/>
	<path class="st2" d="M336.1,375.2c0,7-5,10.2-10.1,10.2c-5.6,0-9.9-3.7-9.9-9.9c0-6.2,4.1-10.2,10.3-10.2
		C332.2,365.4,336.1,369.4,336.1,375.2z M322.3,375.4c0,3.3,1.4,5.8,3.9,5.8c2.4,0,3.8-2.3,3.8-5.8c0-2.8-1.1-5.7-3.8-5.7
		C323.4,369.6,322.3,372.6,322.3,375.4z"/>
	<path class="st2" d="M336.9,381.8c0-2.2,1.5-3.6,3.5-3.6c2,0,3.5,1.5,3.5,3.6c0,2.1-1.4,3.6-3.6,3.6
		C338.3,385.4,336.9,383.9,336.9,381.8z"/>
	<path class="st2" d="M358.1,385l-8.5-26.4h6.5l3.2,11.2c0.9,3.2,1.7,6.2,2.4,9.5h0.1c0.7-3.2,1.5-6.3,2.4-9.3l3.4-11.3h6.4L365,385
		H358.1z"/>
	<path class="st2" d="M380.5,360.5c0,1.6-1.2,3-3.2,3c-1.9,0-3.1-1.3-3.1-3c0-1.7,1.3-3,3.2-3C379.3,357.5,380.4,358.8,380.5,360.5z
		 M374.3,385v-19.2h6V385H374.3z"/>
	<path class="st2" d="M388.3,365.8l2.6,8.9c0.5,1.6,0.8,3.1,1.1,4.7h0.1c0.3-1.6,0.6-3,1.1-4.7l2.5-8.9h6.3l-7.1,19.2h-6l-7-19.2
		H388.3z"/>
	<path class="st2" d="M407.5,377.3c0.2,2.5,2.6,3.6,5.4,3.6c2,0,3.7-0.3,5.3-0.8l0.8,4c-2,0.8-4.4,1.2-6.9,1.2
		c-6.5,0-10.2-3.8-10.2-9.8c0-4.9,3-10.2,9.7-10.2c6.2,0,8.5,4.8,8.5,9.6c0,1-0.1,1.9-0.2,2.4H407.5z M414.5,373.2
		c0-1.5-0.6-3.9-3.4-3.9c-2.5,0-3.5,2.3-3.7,3.9H414.5z"/>
	<path class="st2" d="M422.4,379.8c1.1,0.7,3.4,1.4,5.1,1.4c1.8,0,2.5-0.6,2.5-1.6c0-1-0.6-1.5-2.8-2.2c-4-1.3-5.5-3.5-5.5-5.8
		c0-3.6,3.1-6.3,7.8-6.3c2.2,0,4.2,0.5,5.4,1.1l-1,4.1c-0.9-0.5-2.5-1.1-4.2-1.1c-1.5,0-2.3,0.6-2.3,1.5c0,0.9,0.7,1.4,3.1,2.2
		c3.6,1.3,5.1,3.1,5.2,5.9c0,3.6-2.8,6.2-8.3,6.2c-2.5,0-4.7-0.6-6.2-1.4L422.4,379.8z"/>
	<path class="st2" d="M467.6,374.9c-0.1-3.2-0.2-7-0.2-10.9h-0.1c-0.9,3.4-2,7.1-3,10.2l-3.2,10.3h-4.7l-2.8-10.2
		c-0.9-3.1-1.7-6.9-2.4-10.4h-0.1c-0.1,3.6-0.3,7.6-0.4,10.9l-0.5,10h-5.5l1.7-26.4h8l2.6,8.8c0.9,3.1,1.6,6.4,2.2,9.4h0.2
		c0.7-3.1,1.6-6.5,2.5-9.5l2.8-8.8h7.8l1.4,26.4H468L467.6,374.9z"/>
	<path class="st2" d="M481.7,377.3c0.2,2.5,2.6,3.6,5.4,3.6c2,0,3.7-0.3,5.3-0.8l0.8,4c-2,0.8-4.4,1.2-6.9,1.2
		c-6.5,0-10.2-3.8-10.2-9.8c0-4.9,3-10.2,9.7-10.2c6.2,0,8.5,4.8,8.5,9.6c0,1-0.1,1.9-0.2,2.4H481.7z M488.7,373.2
		c0-1.5-0.6-3.9-3.4-3.9c-2.5,0-3.5,2.3-3.7,3.9H488.7z"/>
	<path class="st2" d="M492.7,388.8c1.5-0.1,2.8-0.5,3.5-1.3c0.9-0.9,1.2-2.4,1.2-6.2v-15.4h6v16.9c0,4.2-0.9,6.7-2.7,8.4
		c-1.8,1.6-4.5,2.4-7.4,2.4L492.7,388.8z M503.5,360.5c0,1.6-1.2,3-3.2,3c-1.9,0-3.1-1.3-3.1-3c0-1.7,1.3-3,3.2-3
		S503.5,358.8,503.5,360.5z"/>
	<path class="st2" d="M525.8,375.2c0,7-5,10.2-10.1,10.2c-5.6,0-9.9-3.7-9.9-9.9c0-6.2,4.1-10.2,10.3-10.2
		C521.9,365.4,525.8,369.4,525.8,375.2z M511.9,375.4c0,3.3,1.4,5.8,3.9,5.8c2.4,0,3.8-2.3,3.8-5.8c0-2.8-1.1-5.7-3.8-5.7
		C513,369.6,511.9,372.6,511.9,375.4z"/>
	<path class="st2" d="M528.3,372.1c0-2.8,0-4.7-0.2-6.3h5.1l0.2,3.5h0.2c1-2.8,3.3-4,5.2-4c0.5,0,0.8,0,1.3,0.1v5.6
		c-0.5-0.1-0.9-0.2-1.6-0.2c-2.2,0-3.7,1.2-4.1,3c-0.1,0.4-0.1,0.9-0.1,1.3v9.7h-6V372.1z"/>
	<path class="st2" d="M539.1,381.8c0-2.2,1.4-3.6,3.5-3.6c2,0,3.5,1.5,3.5,3.6c0,2.1-1.4,3.6-3.6,3.6
		C540.5,385.4,539.1,383.9,539.1,381.8z"/>
</g>
</svg>
