<svg id="Layer_1" data-name="Layer 1" xmlns="http://www.w3.org/2000/svg" viewBox="0 0 655.88 173.68"><defs><style>.cls-1,.cls-2{fill:#1d1d1b;}.cls-1{fill-rule:evenodd;}</style></defs><path class="cls-1" d="M434.67,310.73a12.07,12.07,0,0,1-12.89,12.4c-5.09,0-9.16-2.91-9.16-9,0-9.37,10.31-11.95,22.05-11.89v8.51Zm18.39-16.31c0-15.44-6.6-29-28.88-29-11.43,0-20.52,3.21-25.47,6.07l3.62,12.42a37.24,37.24,0,0,1,18.59-5.23c11.3,0,13.14,6.39,13.14,10.52v1c-24.64,0-40.21,8.5-40.21,25.87,0,10.62,7.94,20.57,21.72,20.57,8.48,0,15.58-3.38,19.83-8.8h.42s2.81,11.76,18.31,7.28a101.72,101.72,0,0,1-1.07-16.43V294.42Z" transform="translate(-69.17 -219.75)"/><path class="cls-1" d="M69.17,244.39s16.1,66,18.68,76.66c3,12.52,8.4,17.11,24,14l10.06-40.92c2.54-10.16,4.25-17.4,5.89-27.74h.29c1.15,10.45,2.79,17.62,4.89,27.79,0,0,4.09,18.56,6.19,28.31s7.94,15.9,23.2,12.56l24-90.68H167l-8.18,39.2c-2.21,11.4-4.21,20.32-5.73,30.76h-.28c-1.4-10.33-3.17-18.89-5.41-30l-8.52-39.95H118.7l-9.1,38.94c-2.59,11.83-5,21.4-6.54,31.47h-.28c-1.58-9.49-3.67-21.5-5.93-32.95,0,0-5.41-27.87-7.31-37.46Z" transform="translate(-69.17 -219.75)"/><path class="cls-1" d="M222.86,310.73a12.68,12.68,0,0,1-.46,3.68A12.9,12.9,0,0,1,210,323.13c-5.09,0-9.14-2.91-9.14-9,0-9.37,10.29-11.95,22-11.89v8.51Zm18.39-16.31c0-15.44-6.58-29-28.87-29-11.44,0-20.52,3.21-25.48,6.07l3.64,12.42a37.17,37.17,0,0,1,18.58-5.23c11.3,0,13.15,6.39,13.15,10.52v1c-24.65,0-40.21,8.5-40.21,25.87,0,10.62,7.93,20.57,21.7,20.57,8.48,0,15.58-3.38,19.83-8.8H224s2.82,11.76,18.33,7.28a99.33,99.33,0,0,1-1.09-16.43V294.42Z" transform="translate(-69.17 -219.75)"/><polygon class="cls-1" points="202.78 96.05 202.78 24.63 184.37 24.63 184.37 115.32 202.78 115.32 202.78 96.05 202.78 96.05"/><path class="cls-1" d="M512.88,244.39v66.9c0,9.2,1.72,15.67,5.45,19.62,3.23,3.45,8.57,5.68,15,5.68a43.77,43.77,0,0,0,13.33-2l-.24-14.39a28.11,28.11,0,0,1-7,.82c-6.27,0-8.37-4-8.37-12.29V283.18h16V265.83H531V244.39Z" transform="translate(-69.17 -219.75)"/><path class="cls-1" d="M465.33,267v68.12h19v-34.9a27.34,27.34,0,0,1,.41-5c1.42-7.3,7-12,15-12a34.13,34.13,0,0,1,5.47.48V265.83a17.5,17.5,0,0,0-4.18-.43c-7.09,0-15.14,4.58-18.53,14.39H482V267Z" transform="translate(-69.17 -219.75)"/><path class="cls-1" d="M284.85,267v68.12h18.51V295.12a15.8,15.8,0,0,1,.87-5.58c1.53-4,5.27-8.74,11.25-8.74,7.47,0,11,6.32,11,15.44v38.83h18.49V294.63a19.13,19.13,0,0,1,.77-5.52,11.7,11.7,0,0,1,11.12-8.31c7.57,0,11.19,6.21,11.19,16.94v37.33h18.52V294.94c0-21.17-10.75-29.54-22.88-29.54a24.65,24.65,0,0,0-13.44,3.7,28.68,28.68,0,0,0-8.63,8.48h-.27c-2.93-7.34-9.8-12.18-18.78-12.18-11.5,0-16.69,5.83-19.83,10.8h-.28V267Z" transform="translate(-69.17 -219.75)"/><path class="cls-1" d="M650.3,267.94c3.34,0,6.11-1.74,6.49-4l3.31-37.46c0-3.69-4.35-6.73-9.79-6.73s-9.78,3-9.78,6.73l3.31,37.46c.36,2.26,3.14,4,6.48,4Z" transform="translate(-69.17 -219.75)"/><path class="cls-1" d="M630.06,279.63c1.68-2.89,1.55-6.16-.22-7.6l-30.79-21.6c-3.19-1.84-8,.38-10.72,5.11s-2.25,10,.94,11.84l34.09,15.87c2.13.79,5-.74,6.71-3.63Z" transform="translate(-69.17 -219.75)"/><path class="cls-1" d="M670.56,279.62c1.68,2.89,4.57,4.42,6.71,3.63l34.09-15.87c3.2-1.85,3.66-7.13.93-11.84s-7.52-6.95-10.73-5.11L670.78,272c-1.76,1.44-1.88,4.71-.21,7.6Z" transform="translate(-69.17 -219.75)"/><path class="cls-1" d="M650.3,314.7c3.34,0,6.11,1.75,6.49,4l3.31,37.46c0,3.7-4.35,6.74-9.79,6.74s-9.78-3-9.78-6.74l3.31-37.46c.36-2.25,3.14-4,6.48-4Z" transform="translate(-69.17 -219.75)"/><path class="cls-1" d="M670.56,303c1.68-2.9,4.57-4.42,6.71-3.62l34.09,15.86c3.2,1.85,3.66,7.12.93,11.85s-7.52,6.95-10.73,5.11l-30.78-21.6c-1.76-1.45-1.88-4.72-.21-7.61Z" transform="translate(-69.17 -219.75)"/><path class="cls-1" d="M630.06,303c1.68,2.89,1.55,6.16-.22,7.61l-30.79,21.58c-3.19,1.85-8-.38-10.72-5.09s-2.25-10,.94-11.86l34.09-15.85c2.13-.81,5,.71,6.71,3.62Z" transform="translate(-69.17 -219.75)"/><path class="cls-1" d="M714.48,338.35a2.89,2.89,0,0,0,1.4.38c.69,0,1.06-.31,1.06-.79s-.3-.7-1-1c-.95-.36-1.56-.86-1.56-1.69s.78-1.69,2-1.69a3,3,0,0,1,1.4.3l-.27.86a2.44,2.44,0,0,0-1.15-.28c-.68,0-1,.36-1,.7s.33.65,1.11.95c1,.37,1.49.89,1.49,1.72s-.7,1.75-2.2,1.75a3.43,3.43,0,0,1-1.57-.36l.24-.89Z" transform="translate(-69.17 -219.75)"/><path class="cls-1" d="M723.9,337.14c0-.74-.08-1.65-.08-2.44h0a20.28,20.28,0,0,1-.69,2.23l-.83,2.53h-.82l-.78-2.49c-.21-.75-.42-1.54-.57-2.27h0c0,.76-.07,1.69-.1,2.49l-.14,2.33h-1l.39-5.81h1.39l.77,2.33c.21.68.38,1.37.53,2h0c.15-.62.35-1.35.57-2l.8-2.33h1.38l.35,5.81h-1l-.11-2.38Z" transform="translate(-69.17 -219.75)"/><path class="cls-2" d="M96.33,378.22,94.45,385H88.29l8-26.43h7.84L112.41,385h-6.47l-2-6.79Zm6.71-4.46-1.65-5.61c-.47-1.57-.94-3.53-1.33-5.1H100c-.39,1.57-.79,3.57-1.22,5.1l-1.57,5.61Z" transform="translate(-69.17 -219.75)"/><path class="cls-2" d="M114.29,357.17h6v11h.08a6.39,6.39,0,0,1,2.35-2,6.8,6.8,0,0,1,3.09-.74c3.81,0,6.71,2.62,6.71,8.42V385h-6V374.46c0-2.51-.86-4.23-3.1-4.23a3.15,3.15,0,0,0-3,2.11,3.66,3.66,0,0,0-.19,1.3V385h-6Z" transform="translate(-69.17 -219.75)"/><path class="cls-2" d="M155,375.21c0,7-5,10.23-10.11,10.23-5.61,0-9.92-3.69-9.92-9.88s4.07-10.19,10.27-10.19C151.1,365.37,155,369.4,155,375.21Zm-13.88.19c0,3.3,1.37,5.77,3.92,5.77,2.35,0,3.81-2.32,3.81-5.81,0-2.82-1.1-5.72-3.81-5.72S141.14,372.58,141.14,375.4Z" transform="translate(-69.17 -219.75)"/><path class="cls-2" d="M157.53,372.15c0-2.82,0-4.67-.16-6.31h5.1l.23,3.52h.16a5.58,5.58,0,0,1,5.18-4,6.53,6.53,0,0,1,1.25.11v5.61a8.73,8.73,0,0,0-1.61-.16,3.83,3.83,0,0,0-4.07,3,6.88,6.88,0,0,0-.12,1.34V385h-6Z" transform="translate(-69.17 -219.75)"/><path class="cls-2" d="M171.25,372.15c0-2.82,0-4.67-.16-6.31h5.1l.23,3.52h.16a5.59,5.59,0,0,1,5.18-4,6.53,6.53,0,0,1,1.25.11v5.61a8.73,8.73,0,0,0-1.61-.16,3.83,3.83,0,0,0-4.07,3,6.88,6.88,0,0,0-.12,1.34V385h-6Z" transform="translate(-69.17 -219.75)"/><path class="cls-2" d="M200.5,380.38a25.37,25.37,0,0,0,.31,4.63h-5.37l-.35-1.92H195a6.92,6.92,0,0,1-5.49,2.35,5.87,5.87,0,0,1-6.19-5.88c0-5,4.47-7.33,11.25-7.33V372c0-1.06-.55-2.51-3.49-2.51a10.8,10.8,0,0,0-5.29,1.45l-1.1-3.84a15.81,15.81,0,0,1,7.45-1.72c6.39,0,8.39,3.76,8.39,8.31ZM194.73,376c-3.13,0-5.56.75-5.56,3a2.14,2.14,0,0,0,2.35,2.27,3.31,3.31,0,0,0,3.1-2.19,4.76,4.76,0,0,0,.11-1Z" transform="translate(-69.17 -219.75)"/><path class="cls-2" d="M204,379.83a11.64,11.64,0,0,0,5.14,1.41c1.8,0,2.55-.58,2.55-1.56s-.59-1.49-2.78-2.24c-4-1.33-5.53-3.49-5.49-5.76,0-3.61,3.05-6.31,7.8-6.31a12.61,12.61,0,0,1,5.37,1.13l-1,4.12a9.56,9.56,0,0,0-4.15-1.1c-1.46,0-2.28.59-2.28,1.53s.75,1.41,3.1,2.24c3.64,1.25,5.13,3.13,5.17,5.92,0,3.6-2.78,6.23-8.27,6.23a13.57,13.57,0,0,1-6.19-1.37Z" transform="translate(-69.17 -219.75)"/><path class="cls-2" d="M226.84,359a51.88,51.88,0,0,1,8-.59c5.06,0,8.35.94,10.86,2.82,2.74,2,4.47,5.29,4.47,10,0,5.06-1.85,8.55-4.36,10.7-2.78,2.32-7,3.41-12.23,3.41a50.69,50.69,0,0,1-6.78-.39Zm6,21.52a11,11,0,0,0,2.08.12c5.45,0,9-2.94,9-9.26,0-5.48-3.22-8.38-8.4-8.38a12.62,12.62,0,0,0-2.7.23Z" transform="translate(-69.17 -219.75)"/><path class="cls-2" d="M259.07,360.5a3,3,0,0,1-3.22,3,3,3,0,1,1,3.22-3ZM252.91,385V365.84h6V385Z" transform="translate(-69.17 -219.75)"/><path class="cls-2" d="M262.48,372c0-2.39-.08-4.39-.16-6.11h5.17l.28,2.66h.12a6.88,6.88,0,0,1,5.92-3.09c3.92,0,6.86,2.62,6.86,8.27V385h-6V374.38c0-2.47-.86-4.15-3-4.15a3.26,3.26,0,0,0-3.06,2.23,4.5,4.5,0,0,0-.19,1.49V385h-6Z" transform="translate(-69.17 -219.75)"/><path class="cls-2" d="M288.86,377.32c.16,2.47,2.63,3.65,5.41,3.65a15.71,15.71,0,0,0,5.29-.82l.79,4a18.18,18.18,0,0,1-6.94,1.21c-6.51,0-10.23-3.76-10.23-9.76,0-4.86,3-10.23,9.68-10.23,6.19,0,8.55,4.82,8.55,9.56a13.83,13.83,0,0,1-.2,2.35Zm7-4.07c0-1.46-.63-3.89-3.37-3.89-2.51,0-3.53,2.32-3.69,3.89Z" transform="translate(-69.17 -219.75)"/><path class="cls-2" d="M303.8,372.15c0-2.82,0-4.67-.16-6.31h5.1l.23,3.52h.16a5.58,5.58,0,0,1,5.17-4,6.64,6.64,0,0,1,1.26.11v5.61a8.73,8.73,0,0,0-1.61-.16,3.85,3.85,0,0,0-4.08,3,7.81,7.81,0,0,0-.11,1.34V385h-6Z" transform="translate(-69.17 -219.75)"/><path class="cls-2" d="M336.14,375.21c0,7-5,10.23-10.11,10.23-5.61,0-9.92-3.69-9.92-9.88s4.07-10.19,10.27-10.19C332.22,365.37,336.14,369.4,336.14,375.21Zm-13.88.19c0,3.3,1.37,5.77,3.92,5.77,2.36,0,3.81-2.32,3.81-5.81,0-2.82-1.1-5.72-3.81-5.72S322.26,372.58,322.26,375.4Z" transform="translate(-69.17 -219.75)"/><path class="cls-2" d="M336.88,381.83a3.51,3.51,0,1,1,3.46,3.61A3.43,3.43,0,0,1,336.88,381.83Z" transform="translate(-69.17 -219.75)"/><path class="cls-2" d="M358.06,385l-8.47-26.43h6.54l3.22,11.18c.9,3.17,1.72,6.15,2.35,9.45h.12c.67-3.18,1.49-6.32,2.39-9.33l3.37-11.3h6.35L365,385Z" transform="translate(-69.17 -219.75)"/><path class="cls-2" d="M380.48,360.5a3,3,0,0,1-3.21,3,3,3,0,1,1,3.21-3ZM374.32,385V365.84h6V385Z" transform="translate(-69.17 -219.75)"/><path class="cls-2" d="M388.32,365.84l2.59,8.9c.47,1.64.78,3.13,1.09,4.66h.12c.32-1.57.63-3,1.06-4.66l2.47-8.9h6.27L394.79,385h-6l-7-19.17Z" transform="translate(-69.17 -219.75)"/><path class="cls-2" d="M407.49,377.32c.16,2.47,2.63,3.65,5.41,3.65a15.71,15.71,0,0,0,5.29-.82l.79,4A18.18,18.18,0,0,1,412,385.4c-6.51,0-10.23-3.76-10.23-9.76,0-4.86,3-10.23,9.68-10.23,6.19,0,8.55,4.82,8.55,9.56a13.83,13.83,0,0,1-.2,2.35Zm7-4.07c0-1.46-.63-3.89-3.37-3.89-2.51,0-3.53,2.32-3.69,3.89Z" transform="translate(-69.17 -219.75)"/><path class="cls-2" d="M422.39,379.83a11.61,11.61,0,0,0,5.14,1.41c1.8,0,2.54-.58,2.54-1.56s-.59-1.49-2.78-2.24c-4-1.33-5.53-3.49-5.49-5.76,0-3.61,3.06-6.31,7.8-6.31A12.54,12.54,0,0,1,435,366.5l-1,4.12a9.52,9.52,0,0,0-4.15-1.1c-1.45,0-2.27.59-2.27,1.53s.74,1.41,3.09,2.24c3.65,1.25,5.14,3.13,5.18,5.92,0,3.6-2.79,6.23-8.27,6.23a13.62,13.62,0,0,1-6.2-1.37Z" transform="translate(-69.17 -219.75)"/><path class="cls-2" d="M467.55,374.89c-.12-3.17-.23-7-.23-10.86h-.08c-.86,3.38-2,7.14-3,10.24L461,384.58h-4.66l-2.83-10.2c-.86-3.13-1.72-6.9-2.39-10.35h-.07c-.12,3.57-.28,7.65-.44,10.94l-.51,10h-5.52l1.68-26.43h8l2.59,8.83c.86,3,1.65,6.35,2.23,9.44h.16c.71-3.06,1.61-6.54,2.51-9.48l2.78-8.79h7.84L473.79,385H468Z" transform="translate(-69.17 -219.75)"/><path class="cls-2" d="M481.7,377.32c.16,2.47,2.63,3.65,5.41,3.65a15.81,15.81,0,0,0,5.3-.82l.78,4a18.18,18.18,0,0,1-6.94,1.21c-6.51,0-10.23-3.76-10.23-9.76,0-4.86,3-10.23,9.68-10.23,6.2,0,8.55,4.82,8.55,9.56a13.83,13.83,0,0,1-.2,2.35Zm7-4.07c0-1.46-.63-3.89-3.37-3.89-2.51,0-3.53,2.32-3.69,3.89Z" transform="translate(-69.17 -219.75)"/><path class="cls-2" d="M492.72,388.77a5.41,5.41,0,0,0,3.53-1.25c.86-.9,1.17-2.43,1.17-6.24V365.84h6v16.89c0,4.16-.9,6.71-2.7,8.35s-4.55,2.36-7.37,2.36Zm10.82-28.27a3,3,0,0,1-3.21,3,3,3,0,1,1,3.21-3Z" transform="translate(-69.17 -219.75)"/><path class="cls-2" d="M525.81,375.21c0,7-5,10.23-10.12,10.23-5.6,0-9.92-3.69-9.92-9.88s4.08-10.19,10.27-10.19C521.89,365.37,525.81,369.4,525.81,375.21Zm-13.88.19c0,3.3,1.37,5.77,3.92,5.77,2.35,0,3.8-2.32,3.8-5.81,0-2.82-1.1-5.72-3.8-5.72S511.93,372.58,511.93,375.4Z" transform="translate(-69.17 -219.75)"/><path class="cls-2" d="M528.32,372.15c0-2.82,0-4.67-.16-6.31h5.1l.23,3.52h.16a5.58,5.58,0,0,1,5.17-4,6.64,6.64,0,0,1,1.26.11v5.61a8.73,8.73,0,0,0-1.61-.16,3.83,3.83,0,0,0-4.08,3,6.92,6.92,0,0,0-.11,1.34V385h-6Z" transform="translate(-69.17 -219.75)"/><path class="cls-2" d="M539.06,381.83a3.51,3.51,0,1,1,3.45,3.61A3.42,3.42,0,0,1,539.06,381.83Z" transform="translate(-69.17 -219.75)"/></svg>